<svg width="103" height="17" viewBox="0 0 103 17" fill="none" xmlns="http://www.w3.org/2000/svg">
<path fill-rule="evenodd" clip-rule="evenodd" d="M59.8121 3.34516C61.9871 3.34516 63.575 3.88423 64.5753 4.96126C65.5755 6.03884 66.0756 7.71416 66.0756 9.99052C66.0756 12.3727 65.5355 14.1363 64.4563 15.2819C63.3765 16.4275 61.6695 17 59.336 17C57.129 17 55.5256 16.4505 54.5253 15.3499C53.5251 14.2504 53.025 12.5476 53.025 10.2411C53.025 7.84358 53.5806 6.09532 54.6924 4.99526C55.8037 3.89519 57.5101 3.34516 59.8121 3.34516ZM20.5685 3.34516C22.743 3.34516 24.3315 3.88423 25.3317 4.96126C26.332 6.03884 26.8321 7.71416 26.8321 9.99052C26.8321 12.3727 26.2919 14.1363 25.2127 15.2819C24.1318 16.4275 22.4254 17 20.0919 17C17.8848 17 16.2809 16.4505 15.2812 15.3499C14.281 14.2504 13.7808 12.5476 13.7808 10.2411C13.7808 7.84358 14.3359 6.09532 15.4477 4.99526C16.5595 3.89519 18.2665 3.34516 20.5685 3.34516ZM73.6364 3.57274C75.4143 3.57274 76.6852 3.81952 77.4474 4.31306C78.209 4.80606 78.5901 5.712 78.5901 7.03197C78.5901 8.88332 77.5659 10.0212 75.5179 10.4457C75.5808 10.506 75.669 10.6431 75.78 10.8553C76.0385 11.2909 76.2886 11.7309 76.5301 12.1753C76.8552 12.7675 77.0938 13.1843 77.2448 13.4273C77.3953 13.6702 77.6099 13.9844 77.8875 14.3716C78.1656 14.7582 78.4076 15.0313 78.6142 15.1909C78.8202 15.3499 79.0702 15.498 79.3638 15.6351C79.6571 15.7712 79.9792 15.841 80.3051 15.8391C80.3051 16.2641 80.2095 16.5564 80.019 16.7154C79.8284 16.8744 79.4634 16.9545 78.9238 16.9545C78.3836 16.9545 77.9195 16.8711 77.5304 16.7039C77.1413 16.5372 76.7361 16.1999 76.3156 15.6915C75.8951 15.1836 75.5132 14.6474 75.1728 14.087C74.8312 13.526 74.3431 12.676 73.7079 11.5381C73.5606 11.2824 73.4177 11.0245 73.2794 10.7643C72.6253 10.6817 71.9898 10.4972 71.3979 10.2181V15.43C72.0491 15.5813 72.5137 15.7563 72.7912 15.9531C73.0688 16.1505 73.2078 16.4006 73.2078 16.7044H67.2075C67.2075 16.416 67.231 16.2109 67.2785 16.0897C67.3265 15.9685 67.481 15.8506 67.7431 15.7371C68.0052 15.623 68.4298 15.5205 69.0174 15.43V4.91574C68.1757 4.80935 67.6636 4.67665 67.481 4.51706C67.2985 4.35803 67.1989 4.07397 67.1835 3.66377L69.1365 3.64129C70.1047 3.62594 71.0454 3.61113 71.9581 3.59577C72.8714 3.58097 73.431 3.57274 73.637 3.57274H73.6364ZM6.45352 3.57274C8.23199 3.57274 9.50232 3.81952 10.2645 4.31306C11.0262 4.80606 11.4072 5.712 11.4072 7.03197C11.4072 8.88332 10.383 10.0212 8.33556 10.4457C8.39851 10.506 8.48606 10.6431 8.59707 10.8553C8.85548 11.2909 9.10558 11.731 9.34725 12.1753C9.67227 12.7675 9.91089 13.1843 10.062 13.4273C10.2124 13.6702 10.427 13.9844 10.7046 14.3716C10.9827 14.7582 11.2247 15.0313 11.4313 15.1909C11.6373 15.3499 11.8873 15.498 12.1809 15.6351C12.4742 15.7712 12.7963 15.841 13.1222 15.8391C13.1222 16.2641 13.0266 16.5564 12.8361 16.7154C12.6455 16.8744 12.2805 16.9545 11.7409 16.9545C11.2007 16.9545 10.7366 16.8711 10.3475 16.7039C9.95838 16.5372 9.55325 16.1999 9.13267 15.6915C8.7121 15.1836 8.3302 14.6474 7.98994 14.087C7.64832 13.526 7.16022 12.676 6.52505 11.5381C6.37762 11.2825 6.23474 11.0245 6.09646 10.7643C5.44243 10.6817 4.80689 10.4972 4.21499 10.2181V15.43C4.86618 15.5813 5.33082 15.7563 5.60835 15.9531C5.88588 16.1505 6.02493 16.4006 6.02493 16.7044H0.0240333C0.0240333 16.416 0.0474944 16.2109 0.0955611 16.0897C0.143056 15.9685 0.297556 15.8506 0.559633 15.7371C0.821711 15.623 1.2463 15.5205 1.83397 15.43V4.91574C0.992233 4.80935 0.480094 4.67665 0.297556 4.51706C0.115017 4.35803 0.01545 4.07452 0 3.66377L1.95299 3.64129C2.92119 3.62594 3.86193 3.61113 4.77519 3.59577C5.68789 3.58097 6.24752 3.57274 6.45352 3.57274ZM92.3309 3.64129L92.4974 7.37361C92.1169 7.35826 91.8388 7.30506 91.6643 7.21458C91.4892 7.123 91.3152 6.87677 91.1401 6.47426C90.9656 6.07284 90.7985 5.43177 90.64 4.55161H87.8064V15.43C89.0126 15.7031 89.6163 16.1275 89.6163 16.7039H83.6148C83.6148 16.416 83.6389 16.2114 83.6864 16.0897C83.7339 15.9685 83.8889 15.8506 84.1504 15.7371C84.4125 15.623 84.8371 15.5205 85.4248 15.43V4.55161H82.5671C82.4395 5.43177 82.297 6.07284 82.1379 6.47426C81.9794 6.87677 81.8129 7.123 81.6384 7.21458C81.4633 7.30506 81.1772 7.36594 80.7806 7.3961L80.8762 3.64129H92.3309ZM51.2225 3.64129L51.318 7.14548C50.9369 7.13123 50.6588 7.08132 50.4843 6.99797C50.3098 6.91461 50.1427 6.69087 49.9842 6.32674C49.8257 5.96261 49.6752 5.37803 49.5321 4.5741H45.4831V9.53536L49.8892 9.37632V10.4912H45.4831V15.43C46.1497 15.5813 46.6224 15.7563 46.8999 15.9531C47.178 16.1505 47.3176 16.4006 47.3176 16.7044H41.2435C41.2435 16.416 41.2675 16.2109 41.315 16.0897C41.3625 15.9685 41.5176 15.8506 41.7797 15.7371C42.0417 15.623 42.4663 15.5205 43.0534 15.43V4.91574C42.2123 4.79455 41.7001 4.65361 41.5176 4.49458C41.3345 4.33555 41.2435 4.05039 41.2435 3.64129H51.2225ZM32.8375 3.64129C32.8375 3.94455 32.7265 4.19516 32.5045 4.39258C32.2813 4.59 31.9249 4.75616 31.4327 4.89271L34.2424 9.99052H34.2904L37.1 4.91574C36.5129 4.79455 36.1559 4.65361 36.0288 4.49458C35.9018 4.33555 35.8383 4.05039 35.8383 3.64129H40.1963C40.1963 3.95935 40.0693 4.21765 39.8152 4.41452C39.5612 4.61194 39.1326 4.78687 38.5294 4.93823L34.9811 11.1515V15.43C35.6477 15.5813 36.1158 15.7563 36.3859 15.9531C36.656 16.1505 36.791 16.4006 36.791 16.7044H30.7896C30.7896 16.416 30.8136 16.2109 30.8611 16.0897C30.9086 15.9685 31.0637 15.8506 31.3257 15.7371C31.5872 15.623 32.0124 15.5205 32.5995 15.43V11.2875L28.7891 4.93823C28.0274 4.81703 27.5628 4.67335 27.3963 4.5061C27.2292 4.33939 27.1462 4.05094 27.1462 3.64129H32.8375ZM59.3835 4.36955C57.9547 4.36955 56.9785 4.74848 56.4543 5.50745C55.9307 6.26587 55.6686 7.61655 55.6686 9.55839C55.6686 12.0618 55.9582 13.7568 56.5384 14.6447C57.1169 15.532 58.1933 15.9762 59.7646 15.9762C61.2409 15.9762 62.2212 15.5704 62.7058 14.7587C63.1899 13.9471 63.4325 12.4939 63.4325 10.4002C63.4325 8.13971 63.1579 6.56913 62.6103 5.68952C62.0627 4.80935 60.9869 4.36955 59.3835 4.36955ZM20.1399 4.36955C18.7111 4.36955 17.7343 4.74848 17.2107 5.50745C16.6866 6.26587 16.4245 7.61655 16.4245 9.55839C16.4245 12.0618 16.714 13.7568 17.2943 14.6447C17.8734 15.532 18.9491 15.9762 20.521 15.9762C21.9974 15.9762 22.9776 15.5704 23.4623 14.7587C23.9464 13.9471 24.1884 12.4939 24.1884 10.4002C24.1884 8.13971 23.9143 6.56913 23.3667 5.68952C22.8191 4.80935 21.7439 4.36955 20.1399 4.36955ZM73.3984 4.50665C73.1758 4.50665 72.8267 4.50994 72.3512 4.51761C71.8745 4.52529 71.5564 4.52858 71.3979 4.52858V9.80845C71.779 9.82381 72.3661 9.83148 73.1603 9.83148C74.2716 9.83148 75.0178 9.62639 75.3989 9.21729C75.78 8.8071 75.9711 8.16987 75.9711 7.30506C75.9711 6.25819 75.792 5.52994 75.4349 5.12029C75.0773 4.71065 74.3992 4.5061 73.3984 4.5061V4.50665ZM6.21548 4.50665C5.99288 4.50665 5.6444 4.50994 5.16831 4.51761C4.69165 4.52529 4.37407 4.52858 4.21499 4.52858V9.80845C4.59666 9.82381 5.18319 9.83148 5.97743 9.83148C7.08869 9.83148 7.83487 9.62639 8.21597 9.21729C8.59707 8.8071 8.78819 8.16987 8.78819 7.30506C8.78819 6.25819 8.60908 5.52994 8.25202 5.12029C7.89495 4.71065 7.21629 4.5061 6.21548 4.5061V4.50665ZM99.4991 0C100.275 1.43693 101.498 2.60629 103 3.34516C101.498 4.08415 100.275 5.25348 99.4991 6.69032C98.7236 5.25352 97.4998 4.08421 95.9983 3.34516C97.4999 2.60626 98.7237 1.43691 99.4991 0ZM99.4591 2.19135L98.4291 2.20068C98.4291 2.28294 98.4463 2.34271 98.4789 2.38055C98.5121 2.41894 98.5945 2.4469 98.7266 2.4661V4.046C98.6562 4.05337 98.5885 4.07606 98.5287 4.11235C98.4829 4.14416 98.456 4.17268 98.4497 4.1979C98.4418 4.23524 98.4383 4.27333 98.4394 4.31142H99.4597C99.4612 4.28105 99.4562 4.25071 99.4451 4.22223C99.434 4.19376 99.417 4.16775 99.395 4.14581C99.3521 4.10468 99.2783 4.07177 99.1724 4.046V3.32706C99.2319 3.34571 99.3012 3.36161 99.3801 3.37423L99.4597 3.49761C99.605 3.74329 99.7074 3.91055 99.7669 3.99884C99.9317 4.23245 100.113 4.34926 100.311 4.34926C100.417 4.34926 100.486 4.33171 100.519 4.29716C100.552 4.26261 100.569 4.19461 100.569 4.09371C100.523 4.10632 100.486 4.10632 100.46 4.09371C100.428 4.0939 100.396 4.08909 100.366 4.07945C100.334 4.06876 100.305 4.0509 100.282 4.02735C100.255 4.00211 100.23 3.97518 100.208 3.94674C100.145 3.86534 100.089 3.77996 100.039 3.69119L99.9398 3.51571C99.902 3.44942 99.8641 3.38324 99.8259 3.31719C100.137 3.23548 100.292 3.05232 100.292 2.76881C100.292 2.55439 100.229 2.40413 100.103 2.31913C99.9775 2.23358 99.7629 2.19135 99.4597 2.19135H99.4591ZM99.4299 2.39974C99.5753 2.39974 99.676 2.42771 99.732 2.48474C99.7881 2.54123 99.8162 2.64926 99.8162 2.80665C99.8162 2.93881 99.7864 3.03203 99.7269 3.08577C99.6674 3.13952 99.5587 3.16639 99.4007 3.16639H99.1724V2.40906C99.258 2.4015 99.344 2.39839 99.4299 2.39974Z" fill="#0F0F0F"/>
</svg>
